# xmcd
#
# Track frame offsets:
#	150
#	18318
#	32632
#	48118
#	66865
#	84184
#	100529
#	132267
#	157201
#	179474
#	211470
#	229138
#	239876
#	259023
#	273012
#	289530
#	308494
#	334791
# Disc length: 4563 seconds
# Revision: 1
# Processed by: cddbd v1.5.2PL0 Copyright (c) Steve Scherf et al.
#
# Submitted via: libkcddb 0.31
#
DISCID=f211d112
DTITLE=Various Artist - Suncoast Blues vol. 2
DYEAR=2003
DGENRE=Blues
TTITLE0=Blues Thing - Tommy McCoy
TTITLE1=Like Tears in Rain - P.W. Fenton
TTITLE2=Dogs in the Rain - Wendy and the Soulshakers
TTITLE3=Don't Bug Me Baby - Kim Harpo Blues Band
TTITLE4=I'm Gonna Get You - Sarasota Slim
TTITLE5=So Glad - TomCat Blake
TTITLE6=Manatee County Jail - Woodlawn Fats
TTITLE7=Palatka Stomp - The Smokin Bones
TTITLE8=You're Gonna Do Me Wrong - The Damon Fowler Group
TTITLE9=Blues for Roy - Jimmy Griswold
TTITLE10=Still Got 'Em - Charlie Morris
TTITLE11=Get on Home - Scotty Clark
TTITLE12=Computer, Computer - Ed Wright
TTITLE13=I Wanna Move To Oslo - Sandy Atkinson
TTITLE14=Every Time I Look Into Your Eyes - Laptop Randy
TTITLE15=Medicine Man - Jim Bennett
TTITLE16=Blues Stalker - The Accelerators
TTITLE17=Precious Lord - Woodlawn Fats
EXTD=YEAR: 2003
EXTT0=
EXTT1=
EXTT2=
EXTT3=
EXTT4=
EXTT5=
EXTT6=
EXTT7=
EXTT8=
EXTT9=
EXTT10=
EXTT11=
EXTT12=
EXTT13=
EXTT14=
EXTT15=
EXTT16=
EXTT17=
PLAYORDER=
